/* XPM */
static char *_4a9c884499149f9a30e7cc69bf2cbb5oNKSkMbBiLdzAA8f[] = {
/* columns rows colors chars-per-pixel */
"32 32 20 1 ",
"  c None",
". c black",
"X c #D32F2F",
"o c #8D5524",
"O c #896347",
"+ c #FF9800",
"@ c #FFC107",
"# c #FFEB3B",
"$ c #C68642",
"% c #607D8B",
"& c #2962FF",
"* c #2196F3",
"= c #03A9F4",
"- c #42A5F5",
"; c #4FC3F7",
": c gray63",
"> c #90CAF9",
", c gray83",
"< c #E1F5FE",
"1 c white",
/* pixels */
";;;&========XXXO&&&&&&&&&&&&&&; ",
";;&&&=========@O>&&&&&&&&&&&&&;;",
";&&&&&==&&&&&@XX@=&&&&&&&&&&===;",
";&oooooooooo$$$$$$ooooooooooo=&;",
";&&:,:,,,:,,$$$$$$,,:,,,,:,:&&&&",
";&&:,:,,,:,,,$$$$,,,:,,,,:,:-&&&",
";=&:,,:,,,:,,,oo,,,:,,,,:,,:--&&",
"ooooooooooooooooooooooooooooooo;",
"=:,,,,,,,,,,1,,,,,1,,,,,,,,,,:;;",
"=:,,,:,,,:,11,@@@,11,:,,,:,,,:<<",
";:,,,:,,,:,,,1XXX1,,,:,,,:,,,:<;",
";::,,,:,,:,,,@@@@@,,,:,,:,,,::=;",
"&;:,,,:,,,:,,1.1.1,,:,,,:,,,:&&&",
"&&:,,,,:,,,:,,1.1,,:,,,:,,,,:&&&",
"&&:::,,,:,,,,11111,,,,:,,,:::&&&",
"&&&=:,,,,:,11,1+1,11,:,,,,:&&&&&",
"&&==:::,,,,,1,+++,1,,,,,:::&&&&&",
"&=;;==::+++,,,+++,,,+++::=&&&&&&",
"=;;====X++++,,+++,,++++X==&&&&&&",
";1;&&&&XX+++++++++++++XX===&&&&&",
";11&&&XXX1+++#####+++1XXX=====&=",
";1;;&&XX11X+#.###.#+X11XX=-===;;",
"=;;;;&XXXX1+##111##+1XXXX&&&==1;",
"=&&;;;XX++++##1.1##++++XX&&&&;;=",
"=&&&;;XX1++++#1.1#++++1XX&&&&;&=",
"==&&&;oXX1++++111++++1XXo&&&;;&&",
"==&&&;=oXXXX1+++++1XXXXo&&&;;&&&",
"==&&&;=oooX1+++1+++1Xooo;;;<&&&&",
"==&&&;;=o11+++X1X+++11o=;; ;;;&=",
"==&&;;1;%o1ooXX1XXoo1o%=====;;==",
";;;;;111;%%%ooooooo%%%&&&=====;;",
";;;;;&&&;;;%%%%%%%%%&&&&&&&&&&;*"
};
