/* XPM */
static char *_6bfc494d54e4e4c91417eae07bb1421QgTrSVl9boFS7Lap[] = {
/* columns rows colors chars-per-pixel */
"32 32 6 1 ",
"  c None",
". c black",
"X c #613D24",
"o c #765339",
"O c gray83",
"+ c white",
/* pixels */
"                                ",
"                                ",
"                                ",
"                            ..  ",
"                          ..++. ",
"                         .++++. ",
"                        .++++.. ",
"                 .....  .+++.   ",
"               ...oooo...+++....",
"             ...ooooooo..++++OO.",
"           ...oooooooXooX.++OOO.",
"         ..ooooooXoooooooX.OOO. ",
"        .ooooooooooooooooo....  ",
"       .oooXoooooooooooXooX.    ",
"      ..ooooooooooXooooooXXX.   ",
"     .ooooooXXooooooooooXXXX.   ",
"     .ooooooooooooooooooXXXX.   ",
"    .ooooXooooooooXXoooXXXXo.   ",
"    .oooXXoooooXooooooXXXXXX.   ",
"   .ooXXXXXXoooooooooXXXXXXX.   ",
"   .oXX..XXXXoooooooXXXXooXX.   ",
"    .XX.+..XXXooooXXXXXXXXXX    ",
"    ...+++O.XXoooXXXoXXXXX..    ",
" ...+.+++OO.XXoXXXXXXXXXX.      ",
" .+++++OOO.XXXXXXoXXXXXX.       ",
".++++++O...XXXXXXXXXXX..        ",
".++..+OO.XXXXXXXXXXXXX.         ",
"...O.+O.XXXXXXXXXXXX..          ",
"   .O+O...XXXXXXXXX..           ",
"   .OOO.  ..XXX....             ",
"    .O.     ...                 ",
"     .                          "
};
