/* XPM */
static char *f84f8b02b3024d43d2f6b50cdef9f6c71lDO2HcAqkTfiRnr[] = {
/* columns rows colors chars-per-pixel */
"32 32 10 1 ",
"  c None",
". c black",
"X c #D32F2F",
"o c #E53935",
"O c #FFC107",
"+ c #FFEB3B",
"@ c #03A9F4",
"# c #FFCD94",
"$ c #FFDBAC",
"% c white",
/* pixels */
"                                ",
"                                ",
"            .......             ",
"          .+++++++++.           ",
"         .O+++++++++O.          ",
"         O+++++++++++O          ",
"        .OoooooooooooO.         ",
"        .o+++++++++++o.         ",
"      ..+++++++++++++++..       ",
"     .+++OO..#......OO+++.      ",
"     .+OO...#$...#....OO+.      ",
"     .OO....$$...$#....OO.      ",
"      .....$$$$..$$$.....       ",
"       ..#.$$$$$.$$$.#..        ",
"       ..#$$..$$$..$$#..        ",
"        .#$$$$$$$$$$$#.         ",
"         .#$%%%%%%%$#.          ",
"          .#$%%%%%$#.           ",
"             .###.              ",
"            .X###X.             ",
"           .#XX$XX#.            ",
"          .$#XXXXX#$.           ",
"         .$#.XX+XX.#$.          ",
"         .$#.XXXXX.#$.          ",
"          ..XXX@XXX..           ",
"           .@@@@@@@.            ",
"           .@@@.@@@.            ",
"           .%%. .%%.            ",
"            .#. .#.             ",
"            .#. .#.             ",
"             .. ..              ",
"                                "
};
