/* XPM */
static char *result[] = {
/* columns rows colors chars-per-pixel */
"32 32 5 1 ",
"  c black",
". c #0D65C1",
"X c #1B97F3",
"o c #4EC4F7",
"O c #B4E6FC",
/* pixels */
"ooo.XXXXXXXXoOOo..............oO",
"oo...XXXXXXXXoOXX.............oo",
"o.....XX.....oo.XXX.........XXXo",
"o.....X.....        XXXXXXXXXX.o",
"o....XX.....        XXXXXXXX....",
"o....XXX..            X....XX...",
"oX..XXXXXX            ......XX..",
"oXXXXXX.                .....X.o",
"oXXXXX..                .....Xoo",
"XXXXX...      ..XX      ....ooOO",
"oXXX....      ..XX      OoooooOo",
"ooXX..       ....XX       oXXXXo",
"oooooo       ....XX       XX....",
".ooOOO       ...XXX       X.....",
"..ooOO      XXXXXXXX      ......",
"...ooO      oooX....      ......",
"...Xoo      oooo....      ......",
"..XXoX      X...ooOo      ......",
".XooXX       ...oOO       ......",
"XooXXX       ....oo       X.....",
"oOo...       X...o.       XXXX.X",
"oOO.....      XXoo      XXXXXXoo",
"oOoo....      XXoo      ....XXOo",
"Xoooo...                .....ooX",
"X..ooo..                .....o.X",
"X...oooooo            ......oo..",
"XX...oXXXX            o....oo...",
"XX...oXXXXX.        oooooooO....",
"XX...ooXX...        XXXXooOooo.X",
"XX..ooOoXX...XX.XXX....XXXXXooXX",
"oooooOOOoXXXXXXX.........XXXXXoo",
"ooooo...oooooooo..............oX"
};
