/* XPM */
static char *result[] = {
/* columns rows colors chars-per-pixel */
"32 32 5 1 ",
"  c black",
". c #0D65C1",
"X c #1B97F3",
"o c #4EC4F7",
"O c #B4E6FC",
/* pixels */
"ooo.XXXXXXXXoOOo..............oO",
"oo...XXXXXXXXoOXX.............oo",
"o.....XX.....oo.XXX.........XXXo",
"o.....X.......o.      XXXXXXXX.o",
"o....XX.......Xo      XXXXXX....",
"o....XXX....          X....XX...",
"oX..XXXXXX..          ......XX..",
"oXXXXXX..X            .......X.o",
"oXXXXX....            o......Xoo",
"XXXXX.....            oo....ooOO",
"oXXX......            ooOoooooOo",
"ooXX......ooX.        .oOOoXXXXo",
"oooooooooooOX.        ..ooXX....",
".ooOOOooOoOOX.        ..oXX.....",
"..ooOOooooooXX        XooX......",
"...ooOo....ooo        OoXX......",
"...XooX....Xoo        oOXX......",
"..XXoXXXXXXXX.        .XXX......",
".XooXXXXXXXXX.        ..XX......",
"XooXXXXXXXXXX.        ..XXX.....",
"oOo.......XXXX        .XXXXXXX.X",
"oOO........XXX        XXXXXXXXoo",
"oOoo.........X        XX....XXOo",
"Xoooo........X        X......ooX",
"X..ooo..oooooo        .......o.X",
"X...ooooooXXXX        ......oo..",
"XX...oXXXXXX..        o....oo...",
"XX...oXXXXX...        oooooO....",
"XX...ooXX.....        XXooOooo.X",
"XX..ooOoXX...XX.XXX....XXXXXooXX",
"oooooOOOoXXXXXXX.........XXXXXoo",
"ooooo...oooooooo..............oX"
};
