/* XPM */
static char *result[] = {
/* columns rows colors chars-per-pixel */
"32 32 5 1 ",
"  c black",
". c #0D65C1",
"X c #1B97F3",
"o c #4EC4F7",
"O c #B4E6FC",
/* pixels */
"ooo.XXXXXXXXoOOo..............oO",
"oo...XXXXXXXXoOXX.............oo",
"o.....XX.....oo.XXX.........XXXo",
"o.....X......      XXXXXXXXXXX.o",
"o....XX......      XXXXXXXXX....",
"o....XXX.              ....XX...",
"oX..XXXXX              .....XX..",
"oXXXXXX..                ....X.o",
"oXXXXX...                ....Xoo",
"XXXXX..                  ...ooOO",
"oXXX...                  oooooOo",
"ooXX...        ..XX      OoXXXXo",
"ooooooo        ..XX      oXX....",
".ooOOOooOoOOX...X        XX.....",
"..ooOOooooooXXXXX        X......",
"...ooOo....oooo        oXX......",
"...XooX....Xooo        OXX......",
"..XXoXXXXXXX         ..XXX......",
".XooXXXXXXXX         ...XX......",
"XooXXXXXXX         .....XXX.....",
"oOo.......         ....XXXXXXX.X",
"oOO......         ....XXXXXXXXoo",
"oOoo...                  ...XXOo",
"Xoooo..                  ....ooX",
"X..ooo.                  ....o.X",
"X...ooo                  ...oo..",
"XX...oX                  ..oo...",
"XX...oX                  ooO....",
"XX...oo                  oOooo.X",
"XX..ooOoXX...XX.XXX....XXXXXooXX",
"oooooOOOoXXXXXXX.........XXXXXoo",
"ooooo...oooooooo..............oX"
};
