/* XPM */
static char *result[] = {
/* columns rows colors chars-per-pixel */
"32 32 5 1 ",
"  c black",
". c #0D65C1",
"X c #1B97F3",
"o c #4EC4F7",
"O c #B4E6FC",
/* pixels */
"ooo.XXXXXXXXoOOo..............oO",
"oo...XXXXXXXXoOXX.............oo",
"o.....XX.....oo.XXX.........XXXo",
"o.....X......      XXXXXXXXXXX.o",
"o....XX......      XXXXXXXXX....",
"o....XXX.            XX....XX...",
"oX..XXXXX            X......XX..",
"oXXXXXX                ......X.o",
"oXXXXX.                ......Xoo",
"XXXXX..                  ...ooOO",
"oXXX...                  oooooOo",
"ooXX......ooX....        OoXXXXo",
"oooooooooooOX....        oXX....",
".ooOOOooOoOOX            XX.....",
"..ooOOooooooX            X......",
"...ooOo....oo        XOoXX......",
"...XooX....Xo        ooOXX......",
"..XXoXXXXXXXX          XXX......",
".XooXXXXXXXXX          .XX......",
"XooXXXXXXXXXX....        XX.....",
"oOo.......XXXX...        XXXXX.X",
"oOO....                  XXXXXoo",
"oOoo...                  ...XXOo",
"Xoooo..                  ....ooX",
"X..ooo.                  ....o.X",
"X...ooooo              .....oo..",
"XX...oXXX              ....oo...",
"XX...oXXXXX..      ooooooooO....",
"XX...ooXX....      XXXXXooOooo.X",
"XX..ooOoXX...XX.XXX....XXXXXooXX",
"oooooOOOoXXXXXXX.........XXXXXoo",
"ooooo...oooooooo..............oX"
};
