/* XPM */
static char *e3523f3d60c3419de3f6e9f17ba8d57bKOQprJHHWBdtYXQK[] = {
/* columns rows colors chars-per-pixel */
"32 32 5 1 ",
"  c black",
". c #0D65C1",
"X c #1B97F3",
"o c #4EC4F7",
"O c #B4E6FC",
/* pixels */
"ooo.XXXXXXXXoOOo..............oO",
"oo...XXXXXXXXoOXX.............oo",
"o.....XX.....oo.XXX.........XXXo",
"o.....       .o..XXXXXXXXXXXXX.o",
"o....X       .Xo..XXXXXXXXXX....",
"o....X         oO.      ...XX...",
"oX..XX         OOo      ....XX..",
"oXXXXX         oX       .....X.o",
"oXXXXX         XX       .....Xoo",
"XXXXX.         .X       ....ooOO",
"oXXX..         .X       OoooooOo",
"ooXX..       ....       OOoXXXXo",
"oooooo       ....       ooXX....",
".ooOOO       ...X       oXX.....",
"..ooOO       XXXX       oX......",
"...ooO       ooX.       XX......",
"...Xoo       ooo.       XX......",
"..XXoX                    ......",
".XooXX                    ......",
"XooXXX                    X.....",
"oOo...                    XXXX.X",
"oOO...                    XXXXoo",
"oOoo..                    ..XXOo",
"Xoooo........X         ......ooX",
"X..ooo..oooooo         ......o.X",
"X...ooooooXXXX         .....oo..",
"XX...oXXXXXX..         ....oo...",
"XX...oXXXXX...       ooooooO....",
"XX...ooXX.....       XXXooOooo.X",
"XX..ooOoXX...XX.XXX....XXXXXooXX",
"oooooOOOoXXXXXXX.........XXXXXoo",
"ooooo...oooooooo..............oX"
};
