/* XPM */
static char *_178d400799448d8af97b06cbae3b452LwniPPOGMqupUjOJ[] = {
/* columns rows colors chars-per-pixel */
"32 32 5 1 ",
"  c black",
". c #0D65C1",
"X c #1B97F3",
"o c #4EC4F7",
"O c #B4E6FC",
/* pixels */
"ooo.XXXXXXXXoOOo..............oO",
"oo...XXXXXXXXoOXX.............oo",
"o.....XX.....oo.XXX.........XXXo",
"o.....X.......o..      XXXXXXX.o",
"o....XX.......Xo.      XXXXX....",
"o....XX                ....XX...",
"oX..XXX                .....XX..",
"oXXXXXX                ......X.o",
"oXXXXX.                ......Xoo",
"XXXXX..                o....ooOO",
"oXXX...                oOoooooOo",
"ooXX...        ..XX....oOOoXXXXo",
"ooooooo        ..XXX....ooXX....",
".ooOOOo                .oXX.....",
"..ooOOo                ooX......",
"...ooOo                  X......",
"...XooX                  X......",
"..XXoXXXXXXXX...o        X......",
".XooXXXXXXXXX...o        X......",
"XooXXXX      ....        XX.....",
"oOo....      X...        XXXXX.X",
"oOO....                  XXXXXoo",
"oOoo...                  ...XXOo",
"Xoooo..                ......ooX",
"X..ooo.                ......o.X",
"X...ooooo          ooo......oo..",
"XX...oXXX          oOoo....oo...",
"XX...oXXXXX      .oooooooooO....",
"XX...ooXX..      oXXXXXXooOooo.X",
"XX..ooOoXX...XX.XXX....XXXXXooXX",
"oooooOOOoXXXXXXX.........XXXXXoo",
"ooooo...oooooooo..............oX"
};
