/* XPM */
static char *_9a81cf2c17044f3b1699543151f5dc3hvIEfje7su9i9wIh[] = {
/* columns rows colors chars-per-pixel */
"32 32 5 1 ",
"  c black",
". c #0D65C1",
"X c #1B97F3",
"o c #4EC4F7",
"O c #B4E6FC",
/* pixels */
"ooo.XXXXXXXXoOOo..............oO",
"oo...XXXXXXXXoOXX.............oo",
"o.....XX.....oo.XXX.........XXXo",
"o.....X.......       XXXXXXXXX.o",
"o....XX.....         XXXXXXX....",
"o....XXX....           ....XX...",
"oX..XXXXXX             .....XX..",
"oXXXXXX..X               ....X.o",
"oXXXXX..                 ....Xoo",
"XXXXX...                 ...ooOO",
"oXXX....                 oooooOo",
"ooXX....      ...XX....oOOoXXXXo",
"oooooo        ...XXX....ooXX....",
".ooOOO        ..XXXXX...oXX.....",
"..ooOO        XXXXXXXXXooX......",
"...ooO                  XX......",
"...Xoo                  XX......",
"..XXoX                    ......",
".XooXX                    ......",
"XooXXX        ...o        X.....",
"oOo...        ...o        XXXX.X",
"oOO...        XXoo        XXXXoo",
"oOoo..        XXoo        ..XXOo",
"Xoooo...                .....ooX",
"X..ooo..                .....o.X",
"X...oooo                ....oo..",
"XX...oXX                ...oo...",
"XX...oXXXX            oooooO....",
"XX...ooXX.            XXooOooo.X",
"XX..ooOoXX...XX.XXX....XXXXXooXX",
"oooooOOOoXXXXXXX.........XXXXXoo",
"ooooo...oooooooo..............oX"
};
