/* XPM */
static char *_964f2a7a74e474295277d9670e0799bvDutg5bl8uuIJRVA[] = {
/* columns rows colors chars-per-pixel */
"32 32 5 1 ",
"  c black",
". c #0D65C1",
"X c #1B97F3",
"o c #4EC4F7",
"O c #B4E6FC",
/* pixels */
"ooo.XXXXXXXXoOOo..............oO",
"oo...XXXXXXXXoOXX.............oo",
"o.....XX.....oo.XXX.........XXXo",
"o.....X..                XXXXX.o",
"o....XX..                XXX....",
"o....XX                  ..XX...",
"oX..XXX                  ...XX..",
"oXXXXXX                  ....X.o",
"oXXXXX.                  ....Xoo",
"XXXXX....                ...ooOO",
"oXXX.....                oooooOo",
"ooXX......ooX...        OOoXXXXo",
"oooooooooooOX...        ooXX....",
".ooOOOooOoOOX..        .oXX.....",
"..ooOOooooooXXX        ooX......",
"...ooOo....oooo        oXX......",
"...XooX....Xooo        OXX......",
"..XXoXXXXXXXX..        XXX......",
".XooXXXXXXXXX..        .XX......",
"XooXXXXXXXXXX..       ..XXX.....",
"oOo.......XXXX.       .XXXXXXX.X",
"oOO........XX        .XXXXXXXXoo",
"oOoo.........        XXX....XXOo",
"Xoooo........        XX......ooX",
"X..ooo..ooooo        ........o.X",
"X...ooooooXXX        o......oo..",
"XX...oXXXXXX.       ooo....oo...",
"XX...oXXXXX.        oooooooO....",
"XX...ooXX...        XXXXooOooo.X",
"XX..ooOoXX...XX.XXX....XXXXXooXX",
"oooooOOOoXXXXXXX.........XXXXXoo",
"ooooo...oooooooo..............oX"
};
