/* XPM */
static char *e89f09ae6b604daddec071e27d967506sbVYzUBlbsB8QwmS[] = {
/* columns rows colors chars-per-pixel */
"32 32 5 1 ",
"  c black",
". c #0D65C1",
"X c #1B97F3",
"o c #4EC4F7",
"O c #B4E6FC",
/* pixels */
"ooo.XXXXXXXXoOOo..............oO",
"oo...XXXXXXXXoOXX.............oo",
"o.....XX.....oo.XXX.........XXXo",
"o.....X......      XXXXXXXXXXX.o",
"o....XX....          XXXXXXX....",
"o....XXX.              ....XX...",
"oX..XXXX                ....XX..",
"oXXXXXX                  ....X.o",
"oXXXXX.                  ....Xoo",
"XXXXX..                  ...ooOO",
"oXXX...       ..XX       oooooOo",
"ooXX...      ....XX      OoXXXXo",
"oooooooo     ....XX     ooXX....",
".ooOOOoo      ..XX      oXX.....",
"..ooOOooo      XX      ooX......",
"...ooOo....          XOoXX......",
"...XooX....          ooOXX......",
"..XXoXXXX              oXX......",
".XooXXXX                XX......",
"XooXXXXX      ...o      XXX.....",
"oOo....      X...o.      XXXXX.X",
"oOO....      XXXoo.      XXXXXoo",
"oOoo...       XXoo       ...XXOo",
"Xoooo..        oO        ....ooX",
"X..ooo.                  ....o.X",
"X...ooo                  ...oo..",
"XX...oXX                ...oo...",
"XX...oXXXX            oooooO....",
"XX...ooXX..          XXXooOooo.X",
"XX..ooOoXX...XX.XXX....XXXXXooXX",
"oooooOOOoXXXXXXX.........XXXXXoo",
"ooooo...oooooooo..............oX"
};
