/* XPM */
static char *ef3fbd1f01d34246d4a0558a21d6c022wbAOAHesp5BvzIbc[] = {
/* columns rows colors chars-per-pixel */
"32 32 5 1 ",
"  c black",
". c #0D65C1",
"X c #1B97F3",
"o c #4EC4F7",
"O c #B4E6FC",
/* pixels */
"ooo.XXXXXXXXoOOo..............oO",
"oo...XXXXXXXXoOXX.............oo",
"o.....XX.....oo.XXX.........XXXo",
"o.....X...            XXXXXXXX.o",
"o....XX...            XXXXXX....",
"o....XXX                ...XX...",
"oX..XXXX                ....XX..",
"oXXXXXX.                .....X.o",
"oXXXXX..                .....Xoo",
"XXXXX.        ..XX        ..ooOO",
"oXXX..        ..XX        ooooOo",
"ooXX..        ...X        oXXXXo",
"oooooo        ...X        XX....",
".ooOOO                    X.....",
"..ooOO                    ......",
"...ooO                    ......",
"...Xoo                    ......",
"..XXoXXXXXXXX...oo        ......",
".XooXXXXXXXXX...oO        ......",
"XooXXXXXXXXXX....o        X.....",
"oOo.......XXXX...o      XXXXXX.X",
"oOO....                 XXXXXXoo",
"oOoo...                 ....XXOo",
"Xoooo..                 .....ooX",
"X..ooo.               .......o.X",
"X...ooooo             ......oo..",
"XX...oXXX           Ooo....oo...",
"XX...oXXXXX         oooooooO....",
"XX...ooXX..       XXXXXXooOooo.X",
"XX..ooOoXX...XX.XXX....XXXXXooXX",
"oooooOOOoXXXXXXX.........XXXXXoo",
"ooooo...oooooooo..............oX"
};
