/* XPM */
static char *c443e6004a9547f1b4d2833e1717cfcev6AbvHzbii3dVkxC[] = {
/* columns rows colors chars-per-pixel */
"32 32 12 1 ",
"  c #8A6345",
". c #613A1F",
"X c #775236",
"o c black",
"O c #896347",
"+ c #613D24",
"@ c #391E0B",
"# c white",
"$ c #765339",
"% c #3A1E02",
"& c #4C2D17",
"* c #4B2910",
/* pixels */
" .X....o ....X.o .X....o ......o",
" .X....o ....X.o .X....oO+.X...o",
" ......o ......o .X...@@o++.X..o",
" ......o .X....o ....@@##o+....o",
" ......o .X....o ...+o###o+....o",
" o...o.o .X....o ...+o##oo@o++Xo",
"       o .X....ooo..oo##o###o+Xo",
"oooooooo .X..oo$$$ooo#######oooo",
"%%%%%%%o ..ooo$$$$$$++#####@o&*o",
"X%%....o oo$$$$$$$+$$++#oo@o++*o",
"Xo...o.oo$$$$$$$$$$$$$+oo+++...o",
" ......o$$$$$$+$$$$$$$+o+++....o",
" .....oo$$+$$$$$$$$$$$$o@+.....o",
" ....o$$$$$$$$$$$$$$+$$+o....X.o",
" ....o$+$$$$$$$$$$$$$$$+o....X.o",
" .X.o$$$$$$++$$$$$$$$$+++@...X.o",
" .X.o$$$$$$$$$$$++$$$++$+@X..X.o",
" .Xo$$$++$$$$$$$$$$$+++++@X....o",
" .Xo$$+++++$$$+$$$$+++$+o.X....o",
" .X.o$oo++++$$$$$$++++++o.X....o",
" .X.oo##o+++$$$$$++$+++o ..X...o",
" ooo#####o+++$$$++++++oo ..X...o",
"o########o++$$++++++++oo ...X..o",
"o#######o+++$+++++$+oo.o ...X..o",
"o##oo###o++$++++++++o..o ......o",
"Oooo###o+++++$$+++oo...o ......o",
" ..o###oo++++++++oo....o ......o",
" ..o###oXooo+++ooo.....o ......o",
" ...o#ooX...oooo ....X.o ..X...o",
" ...Xo.o ..X...o ....X.o ..X...o",
" ......o ..X...o ...X..o ...X..o",
" ......o ......o ......o ...X..o"
};
