/* XPM */
static char *cbfbae1046474dddd3c88ca679d9d0basVQyVUwViIQy0H5Z[] = {
/* columns rows colors chars-per-pixel */
"32 32 7 1 ",
"  c black",
". c #3A1E02",
"X c #4B2910",
"o c #613A1F",
"O c #775236",
"+ c #8A6345",
"@ c white",
/* pixels */
"+oOoooo +ooooOo +oOooo   oooooo ",
"+oOoooo +ooooOo +oOoo  @@ oOooo ",
"+oooooo +oooooo +oOoo @@@ ooOoo ",
"+oooooo +oOoooo +oooo @@    ooo ",
"+oooooo +oOoooo   oo  @@ @@@ oo ",
"+ ooo o +oOoo  OOO   @@@@@@@  O ",
"+++++++ +oO   OOOOOOoo@@@@@  OO ",
"        +  OOOOOOOoOOoo@        ",
".......  OOOOOOOOOOOOOo  XXXXXX ",
"O..oooo OOOOOOoOOOOOOOo O ooo X ",
"O ooo   OOoOOOOOOOOOOOO  oooooo ",
"+oooo OOOOOOOOOOOOOOoOOo oooooo ",
"+oooo OoOOOOOOOOOOOOOOOo oooooo ",
"+ooo OOOOOOooOOOOOOOOOooo oooOo ",
"+ooo OOOOOOOOOOOooOOOooOo oooOo ",
"+oO OOOooOOOOOOOOOOOooooo oooOo ",
"+oO OOoooooOOOoOOOOoooOo oOooOo ",
"+oOo O  ooooOOOOOOoooooo oOoooo ",
"+oOo  @@ oooOOOOOooOooo +oOoooo ",
"+   @@@@@ oooOOOoooooo  +oOoooo ",
" @@@@@@@@ ooOOoooooooo  +ooOooo ",
" @@@@@@@ oooOoooooOo  o +ooOooo ",
" @@  @@@ ooOoooooooo oo +oooOoo ",
"+   @@@ oooooOOooo  ooo +oooOoo ",
"+oo @@@  oooooooo  oooo +oooooo ",
"+oo @@@     ooo   ooooo +oooooo ",
"+ooO @  XXXX    +oooooo +oooooo ",
"+oooO o O ooo X +oooooo +oooooo ",
"+oooOoo Ooooooo +ooooOo +ooOooo ",
"+oooOoo +ooOooo +ooooOo +ooOooo ",
"+oooooo +ooOooo +oooOoo +oooOoo ",
"+oooooo +oooooo +oooooo +oooOoo "
};
