/* XPM */
static char *result[] = {
/* columns rows colors chars-per-pixel */
"32 32 19 1 ",
"  c black",
". c #3A1E02",
"X c #391E0B",
"o c #4B2910",
"O c #4C2D17",
"+ c #613A1F",
"@ c #613D24",
"# c #775236",
"$ c #D50000",
"% c #D32F2F",
"& c #8A6345",
"* c #896347",
"= c #FF9800",
"- c #FFC107",
"; c #CDDC39",
": c #03A9F4",
"> c #EAC086",
", c #FFE0BD",
"< c white",
/* pixels */
"&+#++++ &@@@@#@ &@#@@@@ &@@@@@@ ",
"&+#++++ &@@@@#@ &@#@@@@ &@@#@@@ ",
"&++++++ &@@@@@@ &@#@@@@ &@@@#@@ ",
"&++++++ &@#@       @@@@ &@@@@@@ ",
"&++++++ &@ --------- @@ &@@@@@@ ",
"& +++ + & =---------= @ & @@@ # ",
"&&&&&&& &=-----------=@ &&&&&## ",
"         =$$$$$$$$$$$= X        ",
".......  $-----------$ XOoooooo ",
"#..@@@  ---------------  @@@@ o ",
"# @@@ ---==XX>XXXXXX==--- @@@@@ ",
"&@@@@ -==  X>>X X>XXX ==- @@@@@ ",
"&@@@@ ==  XX>>XXX>>XXXX== @@@@@ ",
"&@@@@@  XXX>>>>XX>>>     @@@@#@ ",
"&@@@@@@ X>X>>>>>X>>>X>X *@@@@#@ ",
"&@#@@@@ X>>>XX>>>XX>>>X *@@@@#@ ",
"&@#@@@@ X>>>>>>>>>>>>>  &@#@@#@ ",
"&@#@@#@ & >><<<<,<<>> @ &@#@@@@ ",
"&@#@@#@ &@ >><<<<<>> @@ &@#@@@@ ",
"&@#@@@@ &@@#@ >>> #@@@@ &@#@@@@ ",
"&@#@@@@ &@@# $>>>% #@@@ &@@#@@@ ",
"&@#@@@@ &@@ >$%>%$> @@@ &@@#@@@ ",
"&@#@@@@ &@ >>$%%%$>> @@ &@@@#@@ ",
"&@#@@@@ & >> $%;%% >> @ &@@@#@@ ",
"&@@@@@@ & >> $$$%$ >> @ &@@@@@@ ",
"&@@#@@@     $$$:$$%  @@ &@@@@@@ ",
"&@@#@@@ ooo ::::::: @@@ &@@@@@@ ",
"&@@@#@@ # @ ::: ::: @@@ &@@@@@@ ",
"&@@@#@@ #@@ << @ << @#@ &@@#@@@ ",
"&@@@#@@ &@@# > @ > @@#@ &@@#@@@ ",
"&@@@@@@ &@@# > @ > @#@@ &@@@#@@ ",
"&@@@@@@ &@@@@  @  @@@@@ &@@@#@@ "
};
