/* XPM */
static char *b5061af5fe984a2b884509eb27d496beeXxAlerMO1TtSMgH[] = {
/* columns rows colors chars-per-pixel */
"32 32 6 1 ",
"  c black",
". c #3D2309",
"X c #4C2D17",
"o c #613D24",
"O c #765339",
"+ c #896347",
/* pixels */
"+oOoooo +ooooOo +oOoooo +oooooo ",
"+oOoooo +ooooOo +oOoooo +ooOooo ",
"+oooooo +oooooo +oOoooo +oooOoo ",
"+oooooo +oOoooo +oooooo +oooooo ",
"+oooooo +oOoooo +oooooo +oooooo ",
"+ ooo o +oOoooo +oooOoo + ooo O ",
"+++++++ +oOoooo +oooOoo +++++OO ",
"        +oOoooo +ooOooo         ",
"....... +ooOooo +ooOooo XXXXXXX ",
"O..oooo +ooOooo +oooooo O ooo X ",
"O ooo o +ooOooo +oooooo Ooooooo ",
"+oooooo +ooOooo + Ooo O +oooooo ",
"+oooooo +oooooo +++++++ +oooooo ",
"+oooooo +oooooo         +ooooOo ",
"+oooooo +oooooo XXXXXXX +ooooOo ",
"+oOoooo +oooooo + oXX o +ooooOo ",
"+oOoooo +oooOoo +oooooo +oOooOo ",
"+oOooOo +oooOoo +oOoooo +oOoooo ",
"+oOooOo +oooOoo +oOoooo +oOoooo ",
"+oOoooo +ooOooo +oOoooo +oOoooo ",
"+oOoooo +ooOooo +oOOooo +ooOooo ",
"+oOoooo +oooooo +ooOooo +ooOooo ",
"+oOoooo +oooooo +oooooo +oooOoo ",
"+oOoooo + ooo O +oooooo +oooOoo ",
"+oooooo ++++++O +oooooo +oooooo ",
"+ooOooo         +oooooo +oooooo ",
"+ooOooo XXXXXXX +oooooo +oooooo ",
"+oooOoo O ooo X +oooooo +oooooo ",
"+oooOoo Ooooooo +ooooOo +ooOooo ",
"+oooOoo +ooOooo +ooooOo +ooOooo ",
"+oooooo +ooOooo +oooOoo +oooOoo ",
"+oooooo +oooooo +oooooo +oooOoo "
};
