/* XPM */
static char *_8f835dc79f54efcb24c58a7b372866cJIM9eCBrgDcEfQ00[] = {
/* columns rows colors chars-per-pixel */
"32 32 4 1 ",
"  c #1565C0",
". c #2196F3",
"X c #4FC3F7",
"o c #B3E5FC",
/* pixels */
"XXX ........XooX              Xo",
"XX   ........Xo..             XX",
"X     ..     XX ...         ...X",
"X     .       X  ............. X",
"X    ..       .X  ..........    ",
"X    ...      .Xo  ....    ..   ",
"X.  ......    .ooX....      ..  ",
"X......  .....XX..XX.        . X",
"X.....      .XX.....XXX      .XX",
".....       .X  .... XXX    XXoo",
"X...       XX.  ...   XXoXXXXXoX",
"XX..      XX.    ..    XooX....X",
"XXXXXXXXXXXo.    ...    XX..    ",
" XXoooXXoXoo.   .....   X..     ",
"  XXooXXXXXX...........XX.      ",
"   XXoX    XXXX.     .oX..      ",
"   .XX.    .XXXX     XXo..      ",
"  ..X........   XXoXX  ...      ",
" .XX.........   XooX    ..      ",
".XX..........    XX     ...     ",
"XoX       ....   X     ....... .",
"Xoo        .....XX    ........XX",
"XoXX         ...XX   ...    ..oX",
".XXXX        .XXooXX...      XX.",
".  XXX  XXXXXXXXoXXXX        X .",
".   XXXXXX.... ...XXXX      XX  ",
"..   X......   ..  XoXX    XX   ",
"..   X.....    .  XXXXXXXXXo    ",
"..   XX..     .  X......XXoXXX .",
"..  XXoX..   .. ...    .....XX..",
"XXXXXoooX.......         .....XX",
"XXXXX   XXXXXXXX              X."
};
