/* XPM */
static char *_2b0f94fe2bc4545adfd343cac25fd29hbyPwoMevX7Nw7qx[] = {
/* columns rows colors chars-per-pixel */
"32 32 20 1 ",
"  c black",
". c #3A1E02",
"X c #4B2910",
"o c #613A1F",
"O c #613D24",
"+ c #775236",
"@ c #D32F2F",
"# c #8A6345",
"$ c #E57373",
"% c #FF9800",
"& c #FFAB00",
"* c #FFFB00",
"= c #E0AC69",
"- c #F1C27D",
"; c #EF9A9A",
": c #FF8FA4",
"> c #EAC086",
", c #FFDBAC",
"< c #FFF8E1",
"1 c white",
/* pixels */
"#o+oooo #oooo+o #o+oooo #oooooo ",
"#o+oooo #oooo+o #o+oooo #oo+ooo ",
"#oooooo #oooooo #o+oooo #ooo+oo ",
"#oooooo #o+oooo #oooooo #oooooo ",
"#oooooo #o+oooo #oooooo #oooooo ",
"# ooo o #o+o & &   o+oo # ooo + ",
"####### #o  *******& oo #####++ ",
"        # *********** o         ",
".......  &***********&  XXXXXXX ",
"+..oooo &&*-,*****,-**& + ooo X ",
"+ ooo o &*-,,,,,,,,,-*& +oooooo ",
"#oooooo **-,,,,,,,,,-*& #oooooo ",
"#oooooo&**,,,,,,,,,,,**&#oooooo ",
"#oooooo &*:,,,,,,,,,:*& #oooo+o ",
"#oooooo &*-:::,,,:::-*& #oooo+o ",
"#o+oooo  -,-:::,:::-,-  #oooo+o ",
"#o+oooo  -,,,,,,,,,,,-  #o+oo+o ",
"#o+oo+o # -,<<<<<<<,- o #o+oooo ",
"#o+oo+o #o -,<<<<<,- oo #o+oooo ",
"#o+oooo  ;$$$ === $$$;  #o+oooo ",
"#o+oooo $;;; 1>=>1 ;;;$ #oo+ooo ",
"#o+ooo$;;;; 11,-,11 ;;;;$oo+ooo ",
"#o+ooo ;$; 111---111 ;$; ooo+oo ",
"#o+ooo ;;$11 1,-,1 11$;; ooo+oo ",
"#ooooo $; -- 1---1 -- ;$ oooooo ",
"#oo+oo$;;$$ %%%%%%% $$;;$oooooo ",
"#oo+ooo ;$$ @@@@@@@ $$; #oooooO ",
"#ooo+oo $$$ @@@ @@@ $$$ #oooooo ",
"#ooo+oo  $$$@@   @@$$$  #oo+ooo ",
"#ooo+oo # $$ @ $ @ $$ o #oo+ooo ",
"#oooooo #o $ - $ - $ oo #ooo+oo ",
"#oooooo #oooo  O  ooooo #ooo+oo "
};
